<svg xmlns="http://www.w3.org/2000/svg" version="1.1" xmlns:xlink="http://www.w3.org/1999/xlink" xmlns:svgjs="http://svgjs.dev/svgjs" width="1440" height="560" preserveAspectRatio="none" viewBox="0 0 1440 560"><g mask="url(&quot;#SvgjsMask1000&quot;)" fill="none"><rect width="1440" height="560" x="0" y="0" fill="#0e2a47"></rect><path d="M0,494.242C98.861,478.308,202.068,498.627,291.508,453.595C386.436,405.8,454.179,322.412,514.74,235.074C586.03,132.263,668.572,28.241,673.145,-96.784C678.051,-230.917,636.075,-374.111,540.466,-468.317C446.716,-560.692,304.696,-587.813,173.093,-589.5C59.894,-590.951,-37.476,-524.898,-140.071,-477.04C-227.159,-436.415,-311.665,-396.553,-381.667,-330.717C-457.984,-258.942,-546.951,-184.482,-561.463,-80.726C-575.965,22.958,-488.758,108.962,-457.125,208.762C-419.788,326.555,-463.683,492.965,-358.874,558.42C-253.669,624.122,-122.455,513.979,0,494.242" fill="#0b2239"></path><path d="M1440 1092.339C1561.103 1121.165 1700.45 1195.504 1804.266 1126.808 1908.355 1057.931 1895.364 900.4739999999999 1915.9850000000001 777.375 1932.009 681.716 1909.3899999999999 589.33 1910.548 492.345 1911.976 372.726 1975.761 248.622 1923.584 140.97199999999998 1868.441 27.201000000000022 1756.047-78.40099999999995 1629.8899999999999-86.70500000000004 1502.636-95.08100000000002 1412.644 31.860000000000014 1305.007 100.25599999999997 1228.628 148.79000000000002 1155.939 194.793 1089.758 256.514 1015.817 325.473 932.079 387.352 895.924 481.774 854.917 588.868 818.749 718.063 874.699 818.164 930.662 918.287 1069.189 926.35 1172.393 976.405 1261.67 1019.7049999999999 1343.474 1069.363 1440 1092.339" fill="#113255"></path></g><defs><mask id="SvgjsMask1000"><rect width="1440" height="560" fill="#ffffff"></rect></mask></defs></svg>